<mxfile host="app.diagrams.net" agent="Mozilla/5.0 (Windows NT 10.0; Win64; x64) AppleWebKit/537.36 (KHTML, like Gecko) Chrome/128.0.0.0 Safari/537.36" version="24.7.12">
  <diagram name="1 oldal" id="6Sz63gD1LzJvE59lOWrA">
    <mxGraphModel dx="712" dy="779" grid="1" gridSize="10" guides="1" tooltips="1" connect="1" arrows="1" fold="1" page="1" pageScale="1" pageWidth="827" pageHeight="1169" math="0" shadow="0">
      <root>
        <mxCell id="0" />
        <mxCell id="1" parent="0" />
        <mxCell id="sVCOb3DIX_llfgqJKsz8-1" value="" style="ellipse;whiteSpace=wrap;html=1;" parent="1" vertex="1">
          <mxGeometry x="340" y="30" width="120" height="80" as="geometry" />
        </mxCell>
        <mxCell id="sVCOb3DIX_llfgqJKsz8-2" value="START" style="text;html=1;align=center;verticalAlign=middle;whiteSpace=wrap;rounded=0;" parent="1" vertex="1">
          <mxGeometry x="370" y="55" width="60" height="30" as="geometry" />
        </mxCell>
        <mxCell id="sVCOb3DIX_llfgqJKsz8-3" value="Be: t[], n elemszam" style="shape=parallelogram;perimeter=parallelogramPerimeter;whiteSpace=wrap;html=1;fixedSize=1;" parent="1" vertex="1">
          <mxGeometry x="320" y="160" width="160" height="60" as="geometry" />
        </mxCell>
        <mxCell id="sVCOb3DIX_llfgqJKsz8-5" value="" style="endArrow=classic;html=1;rounded=0;" parent="1" target="sVCOb3DIX_llfgqJKsz8-3" edge="1">
          <mxGeometry width="50" height="50" relative="1" as="geometry">
            <mxPoint x="400" y="110" as="sourcePoint" />
            <mxPoint x="450" y="60" as="targetPoint" />
          </mxGeometry>
        </mxCell>
        <mxCell id="sVCOb3DIX_llfgqJKsz8-58" style="edgeStyle=orthogonalEdgeStyle;rounded=0;orthogonalLoop=1;jettySize=auto;html=1;entryX=0.5;entryY=0;entryDx=0;entryDy=0;" parent="1" source="sVCOb3DIX_llfgqJKsz8-7" target="sVCOb3DIX_llfgqJKsz8-25" edge="1">
          <mxGeometry relative="1" as="geometry" />
        </mxCell>
        <mxCell id="sVCOb3DIX_llfgqJKsz8-7" value="" style="rounded=0;whiteSpace=wrap;html=1;" parent="1" vertex="1">
          <mxGeometry x="340" y="260" width="120" height="60" as="geometry" />
        </mxCell>
        <mxCell id="sVCOb3DIX_llfgqJKsz8-8" value="i := 0&lt;div&gt;j := i+1&lt;/div&gt;" style="text;html=1;align=center;verticalAlign=middle;whiteSpace=wrap;rounded=0;" parent="1" vertex="1">
          <mxGeometry x="370" y="275" width="60" height="30" as="geometry" />
        </mxCell>
        <mxCell id="sVCOb3DIX_llfgqJKsz8-9" value="" style="endArrow=classic;html=1;rounded=0;" parent="1" target="sVCOb3DIX_llfgqJKsz8-7" edge="1">
          <mxGeometry width="50" height="50" relative="1" as="geometry">
            <mxPoint x="400" y="220" as="sourcePoint" />
            <mxPoint x="450" y="170" as="targetPoint" />
          </mxGeometry>
        </mxCell>
        <mxCell id="sVCOb3DIX_llfgqJKsz8-27" value="" style="group" parent="1" vertex="1" connectable="0">
          <mxGeometry x="270" y="360" width="120" height="80" as="geometry" />
        </mxCell>
        <mxCell id="sVCOb3DIX_llfgqJKsz8-25" value="" style="rhombus;whiteSpace=wrap;html=1;" parent="sVCOb3DIX_llfgqJKsz8-27" vertex="1">
          <mxGeometry width="80" height="80" as="geometry" />
        </mxCell>
        <mxCell id="sVCOb3DIX_llfgqJKsz8-26" value="i &amp;lt; n-1" style="text;html=1;align=center;verticalAlign=middle;whiteSpace=wrap;rounded=0;" parent="sVCOb3DIX_llfgqJKsz8-27" vertex="1">
          <mxGeometry x="10" y="25" width="60" height="30" as="geometry" />
        </mxCell>
        <mxCell id="sVCOb3DIX_llfgqJKsz8-29" value="" style="endArrow=classic;html=1;rounded=0;" parent="sVCOb3DIX_llfgqJKsz8-27" edge="1">
          <mxGeometry width="50" height="50" relative="1" as="geometry">
            <mxPoint y="40" as="sourcePoint" />
            <mxPoint x="-50" y="40" as="targetPoint" />
          </mxGeometry>
        </mxCell>
        <mxCell id="sVCOb3DIX_llfgqJKsz8-66" value="i" style="text;html=1;align=center;verticalAlign=middle;whiteSpace=wrap;rounded=0;" parent="sVCOb3DIX_llfgqJKsz8-27" vertex="1">
          <mxGeometry x="60" y="20" width="60" height="30" as="geometry" />
        </mxCell>
        <mxCell id="sVCOb3DIX_llfgqJKsz8-72" value="h" style="text;html=1;align=center;verticalAlign=middle;whiteSpace=wrap;rounded=0;" parent="sVCOb3DIX_llfgqJKsz8-27" vertex="1">
          <mxGeometry x="-40" y="20" width="60" height="30" as="geometry" />
        </mxCell>
        <mxCell id="sVCOb3DIX_llfgqJKsz8-30" value="" style="endArrow=classic;html=1;rounded=0;" parent="1" edge="1">
          <mxGeometry width="50" height="50" relative="1" as="geometry">
            <mxPoint x="440" y="400" as="sourcePoint" />
            <mxPoint x="500" y="400" as="targetPoint" />
          </mxGeometry>
        </mxCell>
        <mxCell id="sVCOb3DIX_llfgqJKsz8-31" value="END" style="ellipse;whiteSpace=wrap;html=1;" parent="1" vertex="1">
          <mxGeometry x="20" y="375" width="90" height="50" as="geometry" />
        </mxCell>
        <mxCell id="sVCOb3DIX_llfgqJKsz8-42" style="edgeStyle=orthogonalEdgeStyle;rounded=0;orthogonalLoop=1;jettySize=auto;html=1;exitX=0.5;exitY=0;exitDx=0;exitDy=0;" parent="1" source="sVCOb3DIX_llfgqJKsz8-32" edge="1">
          <mxGeometry relative="1" as="geometry">
            <mxPoint x="500" y="340" as="targetPoint" />
          </mxGeometry>
        </mxCell>
        <mxCell id="sVCOb3DIX_llfgqJKsz8-32" value="" style="rhombus;whiteSpace=wrap;html=1;" parent="1" vertex="1">
          <mxGeometry x="500" y="360" width="80" height="80" as="geometry" />
        </mxCell>
        <mxCell id="sVCOb3DIX_llfgqJKsz8-33" value="j &amp;lt; n&amp;nbsp;" style="text;html=1;align=center;verticalAlign=middle;whiteSpace=wrap;rounded=0;" parent="1" vertex="1">
          <mxGeometry x="510" y="385" width="60" height="30" as="geometry" />
        </mxCell>
        <mxCell id="sVCOb3DIX_llfgqJKsz8-39" value="" style="group" parent="1" vertex="1" connectable="0">
          <mxGeometry x="440" y="330" width="60" height="30" as="geometry" />
        </mxCell>
        <mxCell id="sVCOb3DIX_llfgqJKsz8-36" value="" style="rounded=0;whiteSpace=wrap;html=1;" parent="sVCOb3DIX_llfgqJKsz8-39" vertex="1">
          <mxGeometry width="60" height="30" as="geometry" />
        </mxCell>
        <mxCell id="sVCOb3DIX_llfgqJKsz8-74" style="edgeStyle=orthogonalEdgeStyle;rounded=0;orthogonalLoop=1;jettySize=auto;html=1;exitX=0;exitY=0.25;exitDx=0;exitDy=0;" parent="sVCOb3DIX_llfgqJKsz8-39" source="sVCOb3DIX_llfgqJKsz8-37" edge="1">
          <mxGeometry relative="1" as="geometry">
            <mxPoint x="-40" y="10" as="targetPoint" />
          </mxGeometry>
        </mxCell>
        <mxCell id="sVCOb3DIX_llfgqJKsz8-37" value="i++" style="text;html=1;align=center;verticalAlign=middle;whiteSpace=wrap;rounded=0;" parent="sVCOb3DIX_llfgqJKsz8-39" vertex="1">
          <mxGeometry x="4.285714285714286" y="5" width="51.42857142857142" height="20" as="geometry" />
        </mxCell>
        <mxCell id="sVCOb3DIX_llfgqJKsz8-44" value="" style="rhombus;whiteSpace=wrap;html=1;" parent="1" vertex="1">
          <mxGeometry x="500" y="460" width="80" height="80" as="geometry" />
        </mxCell>
        <mxCell id="sVCOb3DIX_llfgqJKsz8-47" style="edgeStyle=orthogonalEdgeStyle;rounded=0;orthogonalLoop=1;jettySize=auto;html=1;" parent="1" edge="1">
          <mxGeometry relative="1" as="geometry">
            <mxPoint x="470" y="500" as="targetPoint" />
            <mxPoint x="500" y="500" as="sourcePoint" />
          </mxGeometry>
        </mxCell>
        <mxCell id="sVCOb3DIX_llfgqJKsz8-56" style="edgeStyle=orthogonalEdgeStyle;rounded=0;orthogonalLoop=1;jettySize=auto;html=1;entryX=0;entryY=0.5;entryDx=0;entryDy=0;" parent="1" target="sVCOb3DIX_llfgqJKsz8-51" edge="1">
          <mxGeometry relative="1" as="geometry">
            <mxPoint x="580" y="500" as="sourcePoint" />
          </mxGeometry>
        </mxCell>
        <mxCell id="sVCOb3DIX_llfgqJKsz8-45" value="t[i&lt;span style=&quot;background-color: initial;&quot;&gt;] &amp;gt; t[j]&lt;/span&gt;" style="text;html=1;align=center;verticalAlign=middle;whiteSpace=wrap;rounded=0;" parent="1" vertex="1">
          <mxGeometry x="510" y="485" width="60" height="30" as="geometry" />
        </mxCell>
        <mxCell id="sVCOb3DIX_llfgqJKsz8-46" value="" style="endArrow=classic;html=1;rounded=0;" parent="1" target="sVCOb3DIX_llfgqJKsz8-44" edge="1">
          <mxGeometry width="50" height="50" relative="1" as="geometry">
            <mxPoint x="540" y="440" as="sourcePoint" />
            <mxPoint x="590" y="390" as="targetPoint" />
          </mxGeometry>
        </mxCell>
        <mxCell id="sVCOb3DIX_llfgqJKsz8-49" style="edgeStyle=orthogonalEdgeStyle;rounded=0;orthogonalLoop=1;jettySize=auto;html=1;exitX=0;exitY=0.5;exitDx=0;exitDy=0;" parent="1" source="sVCOb3DIX_llfgqJKsz8-10" edge="1">
          <mxGeometry relative="1" as="geometry">
            <mxPoint x="310" y="500" as="targetPoint" />
          </mxGeometry>
        </mxCell>
        <mxCell id="sVCOb3DIX_llfgqJKsz8-10" value="a = t[i]" style="rounded=0;whiteSpace=wrap;html=1;container=0;" parent="1" vertex="1">
          <mxGeometry x="350" y="470" width="120" height="60" as="geometry" />
        </mxCell>
        <mxCell id="sVCOb3DIX_llfgqJKsz8-15" value="" style="group" parent="1" vertex="1" connectable="0">
          <mxGeometry x="190" y="560" width="120" height="60" as="geometry" />
        </mxCell>
        <mxCell id="sVCOb3DIX_llfgqJKsz8-12" value="" style="rounded=0;whiteSpace=wrap;html=1;" parent="sVCOb3DIX_llfgqJKsz8-15" vertex="1">
          <mxGeometry width="120" height="60" as="geometry" />
        </mxCell>
        <mxCell id="sVCOb3DIX_llfgqJKsz8-14" value="&lt;div&gt;t[j] = a&lt;/div&gt;" style="text;html=1;align=center;verticalAlign=middle;whiteSpace=wrap;rounded=0;" parent="sVCOb3DIX_llfgqJKsz8-15" vertex="1">
          <mxGeometry x="30" y="15" width="60" height="30" as="geometry" />
        </mxCell>
        <mxCell id="sVCOb3DIX_llfgqJKsz8-16" value="" style="group" parent="1" vertex="1" connectable="0">
          <mxGeometry x="190" y="470" width="120" height="60" as="geometry" />
        </mxCell>
        <mxCell id="sVCOb3DIX_llfgqJKsz8-11" value="" style="rounded=0;whiteSpace=wrap;html=1;" parent="sVCOb3DIX_llfgqJKsz8-16" vertex="1">
          <mxGeometry width="120" height="60" as="geometry" />
        </mxCell>
        <mxCell id="sVCOb3DIX_llfgqJKsz8-13" value="t[i] = t[j]" style="text;html=1;align=center;verticalAlign=middle;whiteSpace=wrap;rounded=0;" parent="sVCOb3DIX_llfgqJKsz8-16" vertex="1">
          <mxGeometry x="30" y="15" width="60" height="30" as="geometry" />
        </mxCell>
        <mxCell id="sVCOb3DIX_llfgqJKsz8-50" style="edgeStyle=orthogonalEdgeStyle;rounded=0;orthogonalLoop=1;jettySize=auto;html=1;entryX=0.5;entryY=0;entryDx=0;entryDy=0;" parent="1" target="sVCOb3DIX_llfgqJKsz8-12" edge="1">
          <mxGeometry relative="1" as="geometry">
            <mxPoint x="250" y="530" as="sourcePoint" />
          </mxGeometry>
        </mxCell>
        <mxCell id="sVCOb3DIX_llfgqJKsz8-54" value="" style="group" parent="1" vertex="1" connectable="0">
          <mxGeometry x="610" y="475" width="90" height="50" as="geometry" />
        </mxCell>
        <mxCell id="sVCOb3DIX_llfgqJKsz8-51" value="" style="rounded=0;whiteSpace=wrap;html=1;" parent="sVCOb3DIX_llfgqJKsz8-54" vertex="1">
          <mxGeometry width="90" height="50" as="geometry" />
        </mxCell>
        <mxCell id="sVCOb3DIX_llfgqJKsz8-52" value="j++" style="text;html=1;align=center;verticalAlign=middle;whiteSpace=wrap;rounded=0;" parent="sVCOb3DIX_llfgqJKsz8-54" vertex="1">
          <mxGeometry x="15" y="10" width="60" height="30" as="geometry" />
        </mxCell>
        <mxCell id="sVCOb3DIX_llfgqJKsz8-55" style="edgeStyle=orthogonalEdgeStyle;rounded=0;orthogonalLoop=1;jettySize=auto;html=1;exitX=1;exitY=0.5;exitDx=0;exitDy=0;entryX=0.5;entryY=1;entryDx=0;entryDy=0;" parent="1" source="sVCOb3DIX_llfgqJKsz8-12" target="sVCOb3DIX_llfgqJKsz8-51" edge="1">
          <mxGeometry relative="1" as="geometry" />
        </mxCell>
        <mxCell id="sVCOb3DIX_llfgqJKsz8-57" style="edgeStyle=orthogonalEdgeStyle;rounded=0;orthogonalLoop=1;jettySize=auto;html=1;entryX=1;entryY=0.5;entryDx=0;entryDy=0;exitX=0.5;exitY=0;exitDx=0;exitDy=0;" parent="1" source="sVCOb3DIX_llfgqJKsz8-51" target="sVCOb3DIX_llfgqJKsz8-32" edge="1">
          <mxGeometry relative="1" as="geometry">
            <mxPoint x="655" y="380" as="targetPoint" />
            <mxPoint x="660" y="470" as="sourcePoint" />
            <Array as="points">
              <mxPoint x="660" y="475" />
              <mxPoint x="660" y="400" />
            </Array>
          </mxGeometry>
        </mxCell>
        <mxCell id="sVCOb3DIX_llfgqJKsz8-59" value="" style="rounded=0;whiteSpace=wrap;html=1;" parent="1" vertex="1">
          <mxGeometry x="380" y="380" width="80" height="40" as="geometry" />
        </mxCell>
        <mxCell id="sVCOb3DIX_llfgqJKsz8-60" value="j := i+1" style="text;html=1;align=center;verticalAlign=middle;whiteSpace=wrap;rounded=0;" parent="1" vertex="1">
          <mxGeometry x="390" y="385" width="60" height="30" as="geometry" />
        </mxCell>
        <mxCell id="sVCOb3DIX_llfgqJKsz8-61" style="edgeStyle=orthogonalEdgeStyle;rounded=0;orthogonalLoop=1;jettySize=auto;html=1;entryX=0;entryY=0.5;entryDx=0;entryDy=0;" parent="1" target="sVCOb3DIX_llfgqJKsz8-59" edge="1">
          <mxGeometry relative="1" as="geometry">
            <mxPoint x="350" y="400" as="sourcePoint" />
          </mxGeometry>
        </mxCell>
        <mxCell id="sVCOb3DIX_llfgqJKsz8-67" value="i" style="text;html=1;align=center;verticalAlign=middle;whiteSpace=wrap;rounded=0;" parent="1" vertex="1">
          <mxGeometry x="500" y="430" width="60" height="30" as="geometry" />
        </mxCell>
        <mxCell id="sVCOb3DIX_llfgqJKsz8-69" value="i" style="text;html=1;align=center;verticalAlign=middle;whiteSpace=wrap;rounded=0;" parent="1" vertex="1">
          <mxGeometry x="470" y="495" width="60" height="30" as="geometry" />
        </mxCell>
        <mxCell id="sVCOb3DIX_llfgqJKsz8-70" value="h" style="text;html=1;align=center;verticalAlign=middle;whiteSpace=wrap;rounded=0;" parent="1" vertex="1">
          <mxGeometry x="550" y="500" width="60" height="30" as="geometry" />
        </mxCell>
        <mxCell id="sVCOb3DIX_llfgqJKsz8-71" value="h" style="text;html=1;align=center;verticalAlign=middle;whiteSpace=wrap;rounded=0;" parent="1" vertex="1">
          <mxGeometry x="520" y="340" width="60" height="30" as="geometry" />
        </mxCell>
        <mxCell id="sVCOb3DIX_llfgqJKsz8-78" style="edgeStyle=orthogonalEdgeStyle;rounded=0;orthogonalLoop=1;jettySize=auto;html=1;exitX=0;exitY=0.5;exitDx=0;exitDy=0;entryX=1;entryY=0.46;entryDx=0;entryDy=0;entryPerimeter=0;" parent="1" source="sVCOb3DIX_llfgqJKsz8-73" target="sVCOb3DIX_llfgqJKsz8-31" edge="1">
          <mxGeometry relative="1" as="geometry">
            <mxPoint x="120" y="398" as="targetPoint" />
          </mxGeometry>
        </mxCell>
        <mxCell id="sVCOb3DIX_llfgqJKsz8-73" value="" style="shape=parallelogram;perimeter=parallelogramPerimeter;whiteSpace=wrap;html=1;fixedSize=1;" parent="1" vertex="1">
          <mxGeometry x="130" y="375" width="100" height="45" as="geometry" />
        </mxCell>
        <mxCell id="sVCOb3DIX_llfgqJKsz8-75" value="Ki: t[]" style="text;html=1;align=center;verticalAlign=middle;whiteSpace=wrap;rounded=0;" parent="1" vertex="1">
          <mxGeometry x="150" y="382.5" width="60" height="30" as="geometry" />
        </mxCell>
      </root>
    </mxGraphModel>
  </diagram>
</mxfile>
